# xmcd CD database file
#
# Track frame offsets:
#	150
#	14486
#	27982
#	42985
#	56733
#	72281
#	89691
#	105597
#	118395
#	131899
#
# Disc length: 1996 seconds
#
# Revision: 0
# Processed by: cddbd v1.5PL3 Copyright (c) Steve Scherf et al.
# Submitted via: CDex 1.51
#
DISCID=9507ca0a
DTITLE=Good Old Country - 80's Country Hits
DYEAR=2000
DGENRE=Country
TTITLE0=T. Graham Brown/Darlene
TTITLE1=Mel McDaniel/Baby's Got Her Blue Jeans On
TTITLE2=Lee Greenwood/Dixie Road
TTITLE3=Mark Gray/Please Be Love
TTITLE4=Lucy J. Dalton/Everybody Makes Mistakes
TTITLE5=T. Graham Brown/Don't Go To Strangers
TTITLE6=Johnny Lee/Looking For Love
TTITLE7=Charlie Rich/Goodtime Charlie's Got The Blues
TTITLE8=Deborah Allen/I've Been Wrong Before
TTITLE9=Jeanne Pruett/Temporarily Yours
EXTD=YEAR: 2000
EXTT0=
EXTT1=
EXTT2=
EXTT3=
EXTT4=
EXTT5=
EXTT6=
EXTT7=
EXTT8=
EXTT9=
PLAYORDER=
